<mxfile host="app.diagrams.net" agent="Mozilla/5.0 (Windows NT 10.0; Win64; x64) AppleWebKit/537.36 (KHTML, like Gecko) Chrome/141.0.0.0 Safari/537.36" version="28.2.8">
  <diagram name="PÃ¡gina-1" id="SAmPTXIBSsvGu41LcWDt">
    <mxGraphModel dx="2574" dy="2038" grid="1" gridSize="10" guides="1" tooltips="1" connect="1" arrows="1" fold="1" page="1" pageScale="1" pageWidth="827" pageHeight="1169" math="0" shadow="0">
      <root>
        <mxCell id="0" />
        <mxCell id="1" parent="0" />
        <mxCell id="lc3q0VoDy4iHKCMBtsfO-1" value="CACHORRO" style="rounded=0;whiteSpace=wrap;html=1;" vertex="1" parent="1">
          <mxGeometry x="310" y="40" width="120" height="60" as="geometry" />
        </mxCell>
        <mxCell id="lc3q0VoDy4iHKCMBtsfO-17" style="edgeStyle=orthogonalEdgeStyle;rounded=0;orthogonalLoop=1;jettySize=auto;html=1;exitX=0;exitY=0.5;exitDx=0;exitDy=0;entryX=1;entryY=0.5;entryDx=0;entryDy=0;" edge="1" parent="1" source="lc3q0VoDy4iHKCMBtsfO-2" target="lc3q0VoDy4iHKCMBtsfO-1">
          <mxGeometry relative="1" as="geometry" />
        </mxCell>
        <mxCell id="lc3q0VoDy4iHKCMBtsfO-86" value="1:n" style="edgeLabel;html=1;align=center;verticalAlign=middle;resizable=0;points=[];" vertex="1" connectable="0" parent="lc3q0VoDy4iHKCMBtsfO-17">
          <mxGeometry x="0.0189" y="2" relative="1" as="geometry">
            <mxPoint as="offset" />
          </mxGeometry>
        </mxCell>
        <mxCell id="lc3q0VoDy4iHKCMBtsfO-2" value="cuida" style="rhombus;whiteSpace=wrap;html=1;" vertex="1" parent="1">
          <mxGeometry x="592.5" y="30" width="147.5" height="80" as="geometry" />
        </mxCell>
        <mxCell id="lc3q0VoDy4iHKCMBtsfO-92" style="edgeStyle=orthogonalEdgeStyle;rounded=0;orthogonalLoop=1;jettySize=auto;html=1;exitX=1;exitY=0.5;exitDx=0;exitDy=0;entryX=0;entryY=0.5;entryDx=0;entryDy=0;" edge="1" parent="1" source="lc3q0VoDy4iHKCMBtsfO-3" target="lc3q0VoDy4iHKCMBtsfO-1">
          <mxGeometry relative="1" as="geometry" />
        </mxCell>
        <mxCell id="lc3q0VoDy4iHKCMBtsfO-97" value="1:n" style="edgeLabel;html=1;align=center;verticalAlign=middle;resizable=0;points=[];" vertex="1" connectable="0" parent="lc3q0VoDy4iHKCMBtsfO-92">
          <mxGeometry x="0.1929" y="-6" relative="1" as="geometry">
            <mxPoint x="-16" y="-6" as="offset" />
          </mxGeometry>
        </mxCell>
        <mxCell id="lc3q0VoDy4iHKCMBtsfO-3" value="banha" style="rhombus;whiteSpace=wrap;html=1;" vertex="1" parent="1">
          <mxGeometry x="10" y="30" width="140" height="80" as="geometry" />
        </mxCell>
        <mxCell id="lc3q0VoDy4iHKCMBtsfO-6" value="RESERVA" style="rounded=0;whiteSpace=wrap;html=1;" vertex="1" parent="1">
          <mxGeometry x="310" y="410" width="120" height="60" as="geometry" />
        </mxCell>
        <mxCell id="lc3q0VoDy4iHKCMBtsfO-16" style="edgeStyle=orthogonalEdgeStyle;rounded=0;orthogonalLoop=1;jettySize=auto;html=1;exitX=0.5;exitY=0;exitDx=0;exitDy=0;entryX=0.5;entryY=1;entryDx=0;entryDy=0;" edge="1" parent="1" source="lc3q0VoDy4iHKCMBtsfO-7" target="lc3q0VoDy4iHKCMBtsfO-10">
          <mxGeometry relative="1" as="geometry" />
        </mxCell>
        <mxCell id="lc3q0VoDy4iHKCMBtsfO-88" value="1:n" style="edgeLabel;html=1;align=center;verticalAlign=middle;resizable=0;points=[];" vertex="1" connectable="0" parent="lc3q0VoDy4iHKCMBtsfO-16">
          <mxGeometry x="-0.081" y="-3" relative="1" as="geometry">
            <mxPoint y="1" as="offset" />
          </mxGeometry>
        </mxCell>
        <mxCell id="lc3q0VoDy4iHKCMBtsfO-93" style="edgeStyle=orthogonalEdgeStyle;rounded=0;orthogonalLoop=1;jettySize=auto;html=1;exitX=0;exitY=0.5;exitDx=0;exitDy=0;entryX=1;entryY=0.5;entryDx=0;entryDy=0;" edge="1" parent="1" source="lc3q0VoDy4iHKCMBtsfO-7" target="lc3q0VoDy4iHKCMBtsfO-6">
          <mxGeometry relative="1" as="geometry" />
        </mxCell>
        <mxCell id="lc3q0VoDy4iHKCMBtsfO-94" value="1:n" style="edgeLabel;html=1;align=center;verticalAlign=middle;resizable=0;points=[];" vertex="1" connectable="0" parent="lc3q0VoDy4iHKCMBtsfO-93">
          <mxGeometry x="-0.1059" y="2" relative="1" as="geometry">
            <mxPoint as="offset" />
          </mxGeometry>
        </mxCell>
        <mxCell id="lc3q0VoDy4iHKCMBtsfO-7" value="faz" style="rhombus;whiteSpace=wrap;html=1;" vertex="1" parent="1">
          <mxGeometry x="600" y="400" width="130" height="80" as="geometry" />
        </mxCell>
        <mxCell id="lc3q0VoDy4iHKCMBtsfO-14" style="edgeStyle=orthogonalEdgeStyle;rounded=0;orthogonalLoop=1;jettySize=auto;html=1;exitX=1;exitY=0.5;exitDx=0;exitDy=0;entryX=0;entryY=0.5;entryDx=0;entryDy=0;" edge="1" parent="1" source="lc3q0VoDy4iHKCMBtsfO-8" target="lc3q0VoDy4iHKCMBtsfO-6">
          <mxGeometry relative="1" as="geometry" />
        </mxCell>
        <mxCell id="lc3q0VoDy4iHKCMBtsfO-90" value="1:n" style="edgeLabel;html=1;align=center;verticalAlign=middle;resizable=0;points=[];" vertex="1" connectable="0" parent="lc3q0VoDy4iHKCMBtsfO-14">
          <mxGeometry x="-0.0771" y="1" relative="1" as="geometry">
            <mxPoint as="offset" />
          </mxGeometry>
        </mxCell>
        <mxCell id="lc3q0VoDy4iHKCMBtsfO-8" value="verifica" style="rhombus;whiteSpace=wrap;html=1;" vertex="1" parent="1">
          <mxGeometry x="15" y="400" width="130" height="80" as="geometry" />
        </mxCell>
        <mxCell id="lc3q0VoDy4iHKCMBtsfO-13" style="edgeStyle=orthogonalEdgeStyle;rounded=0;orthogonalLoop=1;jettySize=auto;html=1;exitX=0.5;exitY=1;exitDx=0;exitDy=0;entryX=0.5;entryY=0;entryDx=0;entryDy=0;" edge="1" parent="1" source="lc3q0VoDy4iHKCMBtsfO-9" target="lc3q0VoDy4iHKCMBtsfO-8">
          <mxGeometry relative="1" as="geometry" />
        </mxCell>
        <mxCell id="lc3q0VoDy4iHKCMBtsfO-95" value="1:n" style="edgeLabel;html=1;align=center;verticalAlign=middle;resizable=0;points=[];" vertex="1" connectable="0" parent="lc3q0VoDy4iHKCMBtsfO-13">
          <mxGeometry x="-0.0381" relative="1" as="geometry">
            <mxPoint y="1" as="offset" />
          </mxGeometry>
        </mxCell>
        <mxCell id="lc3q0VoDy4iHKCMBtsfO-91" style="edgeStyle=orthogonalEdgeStyle;rounded=0;orthogonalLoop=1;jettySize=auto;html=1;exitX=0.5;exitY=0;exitDx=0;exitDy=0;entryX=0.5;entryY=1;entryDx=0;entryDy=0;" edge="1" parent="1" source="lc3q0VoDy4iHKCMBtsfO-9" target="lc3q0VoDy4iHKCMBtsfO-3">
          <mxGeometry relative="1" as="geometry" />
        </mxCell>
        <mxCell id="lc3q0VoDy4iHKCMBtsfO-96" value="1:n" style="edgeLabel;html=1;align=center;verticalAlign=middle;resizable=0;points=[];" vertex="1" connectable="0" parent="lc3q0VoDy4iHKCMBtsfO-91">
          <mxGeometry x="0.2104" y="-4" relative="1" as="geometry">
            <mxPoint y="1" as="offset" />
          </mxGeometry>
        </mxCell>
        <mxCell id="lc3q0VoDy4iHKCMBtsfO-9" value="CUIDADOR" style="rounded=0;whiteSpace=wrap;html=1;" vertex="1" parent="1">
          <mxGeometry x="20" y="220" width="120" height="60" as="geometry" />
        </mxCell>
        <mxCell id="lc3q0VoDy4iHKCMBtsfO-19" style="edgeStyle=orthogonalEdgeStyle;rounded=0;orthogonalLoop=1;jettySize=auto;html=1;exitX=0.5;exitY=0;exitDx=0;exitDy=0;entryX=0.5;entryY=1;entryDx=0;entryDy=0;" edge="1" parent="1" source="lc3q0VoDy4iHKCMBtsfO-10" target="lc3q0VoDy4iHKCMBtsfO-2">
          <mxGeometry relative="1" as="geometry" />
        </mxCell>
        <mxCell id="lc3q0VoDy4iHKCMBtsfO-87" value="1:n" style="edgeLabel;html=1;align=center;verticalAlign=middle;resizable=0;points=[];" vertex="1" connectable="0" parent="lc3q0VoDy4iHKCMBtsfO-19">
          <mxGeometry x="0.0912" y="4" relative="1" as="geometry">
            <mxPoint y="1" as="offset" />
          </mxGeometry>
        </mxCell>
        <mxCell id="lc3q0VoDy4iHKCMBtsfO-10" value="TUTOR" style="rounded=0;whiteSpace=wrap;html=1;" vertex="1" parent="1">
          <mxGeometry x="605" y="220" width="120" height="60" as="geometry" />
        </mxCell>
        <mxCell id="lc3q0VoDy4iHKCMBtsfO-21" style="edgeStyle=orthogonalEdgeStyle;rounded=0;orthogonalLoop=1;jettySize=auto;html=1;exitX=1;exitY=0.5;exitDx=0;exitDy=0;entryX=0.5;entryY=0;entryDx=0;entryDy=0;" edge="1" parent="1" source="lc3q0VoDy4iHKCMBtsfO-20" target="lc3q0VoDy4iHKCMBtsfO-3">
          <mxGeometry relative="1" as="geometry" />
        </mxCell>
        <mxCell id="lc3q0VoDy4iHKCMBtsfO-20" value="cpf_cuidador(FK)" style="ellipse;whiteSpace=wrap;html=1;" vertex="1" parent="1">
          <mxGeometry x="-100" y="-30" width="90" height="50" as="geometry" />
        </mxCell>
        <mxCell id="lc3q0VoDy4iHKCMBtsfO-23" style="edgeStyle=orthogonalEdgeStyle;rounded=0;orthogonalLoop=1;jettySize=auto;html=1;exitX=1;exitY=0.5;exitDx=0;exitDy=0;entryX=0.5;entryY=0;entryDx=0;entryDy=0;" edge="1" parent="1" source="lc3q0VoDy4iHKCMBtsfO-22" target="lc3q0VoDy4iHKCMBtsfO-3">
          <mxGeometry relative="1" as="geometry" />
        </mxCell>
        <mxCell id="lc3q0VoDy4iHKCMBtsfO-22" value="id(FK)" style="ellipse;whiteSpace=wrap;html=1;" vertex="1" parent="1">
          <mxGeometry x="-100" y="-90" width="90" height="50" as="geometry" />
        </mxCell>
        <mxCell id="lc3q0VoDy4iHKCMBtsfO-37" style="edgeStyle=orthogonalEdgeStyle;rounded=0;orthogonalLoop=1;jettySize=auto;html=1;exitX=0.5;exitY=1;exitDx=0;exitDy=0;" edge="1" parent="1" source="lc3q0VoDy4iHKCMBtsfO-25">
          <mxGeometry relative="1" as="geometry">
            <mxPoint x="370" y="40" as="targetPoint" />
          </mxGeometry>
        </mxCell>
        <mxCell id="lc3q0VoDy4iHKCMBtsfO-25" value="nome_cachorro" style="ellipse;whiteSpace=wrap;html=1;" vertex="1" parent="1">
          <mxGeometry x="290" y="-130" width="90" height="50" as="geometry" />
        </mxCell>
        <mxCell id="lc3q0VoDy4iHKCMBtsfO-36" style="edgeStyle=orthogonalEdgeStyle;rounded=0;orthogonalLoop=1;jettySize=auto;html=1;exitX=0.5;exitY=1;exitDx=0;exitDy=0;entryX=0.5;entryY=0;entryDx=0;entryDy=0;" edge="1" parent="1" source="lc3q0VoDy4iHKCMBtsfO-26" target="lc3q0VoDy4iHKCMBtsfO-1">
          <mxGeometry relative="1" as="geometry" />
        </mxCell>
        <mxCell id="lc3q0VoDy4iHKCMBtsfO-26" value="id(PK)" style="ellipse;whiteSpace=wrap;html=1;" vertex="1" parent="1">
          <mxGeometry x="180" y="-130" width="90" height="50" as="geometry" />
        </mxCell>
        <mxCell id="lc3q0VoDy4iHKCMBtsfO-39" style="edgeStyle=orthogonalEdgeStyle;rounded=0;orthogonalLoop=1;jettySize=auto;html=1;exitX=0.5;exitY=1;exitDx=0;exitDy=0;entryX=0.5;entryY=0;entryDx=0;entryDy=0;" edge="1" parent="1" source="lc3q0VoDy4iHKCMBtsfO-27" target="lc3q0VoDy4iHKCMBtsfO-1">
          <mxGeometry relative="1" as="geometry" />
        </mxCell>
        <mxCell id="lc3q0VoDy4iHKCMBtsfO-27" value="raca" style="ellipse;whiteSpace=wrap;html=1;" vertex="1" parent="1">
          <mxGeometry x="400" y="-130" width="90" height="50" as="geometry" />
        </mxCell>
        <mxCell id="lc3q0VoDy4iHKCMBtsfO-40" style="edgeStyle=orthogonalEdgeStyle;rounded=0;orthogonalLoop=1;jettySize=auto;html=1;exitX=0.5;exitY=1;exitDx=0;exitDy=0;entryX=0.5;entryY=0;entryDx=0;entryDy=0;" edge="1" parent="1" source="lc3q0VoDy4iHKCMBtsfO-28" target="lc3q0VoDy4iHKCMBtsfO-1">
          <mxGeometry relative="1" as="geometry" />
        </mxCell>
        <mxCell id="lc3q0VoDy4iHKCMBtsfO-28" value="tamanho" style="ellipse;whiteSpace=wrap;html=1;" vertex="1" parent="1">
          <mxGeometry x="515" y="-130" width="90" height="50" as="geometry" />
        </mxCell>
        <mxCell id="lc3q0VoDy4iHKCMBtsfO-42" style="edgeStyle=orthogonalEdgeStyle;rounded=0;orthogonalLoop=1;jettySize=auto;html=1;exitX=0;exitY=0.5;exitDx=0;exitDy=0;entryX=0.5;entryY=0;entryDx=0;entryDy=0;" edge="1" parent="1" source="lc3q0VoDy4iHKCMBtsfO-41" target="lc3q0VoDy4iHKCMBtsfO-2">
          <mxGeometry relative="1" as="geometry" />
        </mxCell>
        <mxCell id="lc3q0VoDy4iHKCMBtsfO-41" value="id(FK)" style="ellipse;whiteSpace=wrap;html=1;" vertex="1" parent="1">
          <mxGeometry x="770" y="-80" width="90" height="50" as="geometry" />
        </mxCell>
        <mxCell id="lc3q0VoDy4iHKCMBtsfO-44" style="edgeStyle=orthogonalEdgeStyle;rounded=0;orthogonalLoop=1;jettySize=auto;html=1;exitX=0;exitY=0.5;exitDx=0;exitDy=0;entryX=0.5;entryY=0;entryDx=0;entryDy=0;" edge="1" parent="1" source="lc3q0VoDy4iHKCMBtsfO-43" target="lc3q0VoDy4iHKCMBtsfO-2">
          <mxGeometry relative="1" as="geometry" />
        </mxCell>
        <mxCell id="lc3q0VoDy4iHKCMBtsfO-43" value="cpf_tutor(FK)" style="ellipse;whiteSpace=wrap;html=1;" vertex="1" parent="1">
          <mxGeometry x="770" y="-20" width="90" height="50" as="geometry" />
        </mxCell>
        <mxCell id="lc3q0VoDy4iHKCMBtsfO-49" style="edgeStyle=orthogonalEdgeStyle;rounded=0;orthogonalLoop=1;jettySize=auto;html=1;exitX=0;exitY=0.5;exitDx=0;exitDy=0;entryX=1;entryY=0.5;entryDx=0;entryDy=0;" edge="1" parent="1" source="lc3q0VoDy4iHKCMBtsfO-45" target="lc3q0VoDy4iHKCMBtsfO-10">
          <mxGeometry relative="1" as="geometry" />
        </mxCell>
        <mxCell id="lc3q0VoDy4iHKCMBtsfO-45" value="cpf_tutor(PK)" style="ellipse;whiteSpace=wrap;html=1;" vertex="1" parent="1">
          <mxGeometry x="790" y="140" width="90" height="50" as="geometry" />
        </mxCell>
        <mxCell id="lc3q0VoDy4iHKCMBtsfO-50" style="edgeStyle=orthogonalEdgeStyle;rounded=0;orthogonalLoop=1;jettySize=auto;html=1;exitX=0;exitY=0.5;exitDx=0;exitDy=0;entryX=1;entryY=0.5;entryDx=0;entryDy=0;" edge="1" parent="1" source="lc3q0VoDy4iHKCMBtsfO-46" target="lc3q0VoDy4iHKCMBtsfO-10">
          <mxGeometry relative="1" as="geometry" />
        </mxCell>
        <mxCell id="lc3q0VoDy4iHKCMBtsfO-46" value="endereco" style="ellipse;whiteSpace=wrap;html=1;" vertex="1" parent="1">
          <mxGeometry x="790" y="200" width="90" height="50" as="geometry" />
        </mxCell>
        <mxCell id="lc3q0VoDy4iHKCMBtsfO-52" style="edgeStyle=orthogonalEdgeStyle;rounded=0;orthogonalLoop=1;jettySize=auto;html=1;exitX=0;exitY=0.5;exitDx=0;exitDy=0;entryX=1;entryY=0.5;entryDx=0;entryDy=0;" edge="1" parent="1" source="lc3q0VoDy4iHKCMBtsfO-47" target="lc3q0VoDy4iHKCMBtsfO-10">
          <mxGeometry relative="1" as="geometry" />
        </mxCell>
        <mxCell id="lc3q0VoDy4iHKCMBtsfO-47" value="telefone_tutor" style="ellipse;whiteSpace=wrap;html=1;" vertex="1" parent="1">
          <mxGeometry x="790" y="320" width="90" height="50" as="geometry" />
        </mxCell>
        <mxCell id="lc3q0VoDy4iHKCMBtsfO-51" style="edgeStyle=orthogonalEdgeStyle;rounded=0;orthogonalLoop=1;jettySize=auto;html=1;exitX=0;exitY=0.5;exitDx=0;exitDy=0;entryX=1;entryY=0.5;entryDx=0;entryDy=0;" edge="1" parent="1" source="lc3q0VoDy4iHKCMBtsfO-48" target="lc3q0VoDy4iHKCMBtsfO-10">
          <mxGeometry relative="1" as="geometry" />
        </mxCell>
        <mxCell id="lc3q0VoDy4iHKCMBtsfO-48" value="nome_tutor" style="ellipse;whiteSpace=wrap;html=1;" vertex="1" parent="1">
          <mxGeometry x="790" y="260" width="90" height="50" as="geometry" />
        </mxCell>
        <mxCell id="lc3q0VoDy4iHKCMBtsfO-59" style="edgeStyle=orthogonalEdgeStyle;rounded=0;orthogonalLoop=1;jettySize=auto;html=1;exitX=0;exitY=0.5;exitDx=0;exitDy=0;entryX=0.5;entryY=1;entryDx=0;entryDy=0;" edge="1" parent="1" source="lc3q0VoDy4iHKCMBtsfO-57" target="lc3q0VoDy4iHKCMBtsfO-7">
          <mxGeometry relative="1" as="geometry" />
        </mxCell>
        <mxCell id="lc3q0VoDy4iHKCMBtsfO-57" value="cpf_tutor(FK)" style="ellipse;whiteSpace=wrap;html=1;" vertex="1" parent="1">
          <mxGeometry x="750" y="480" width="90" height="50" as="geometry" />
        </mxCell>
        <mxCell id="lc3q0VoDy4iHKCMBtsfO-60" style="edgeStyle=orthogonalEdgeStyle;rounded=0;orthogonalLoop=1;jettySize=auto;html=1;exitX=0;exitY=0.5;exitDx=0;exitDy=0;entryX=0.5;entryY=1;entryDx=0;entryDy=0;" edge="1" parent="1" source="lc3q0VoDy4iHKCMBtsfO-58" target="lc3q0VoDy4iHKCMBtsfO-7">
          <mxGeometry relative="1" as="geometry" />
        </mxCell>
        <mxCell id="lc3q0VoDy4iHKCMBtsfO-58" value="codigo(FK)" style="ellipse;whiteSpace=wrap;html=1;" vertex="1" parent="1">
          <mxGeometry x="750" y="550" width="90" height="50" as="geometry" />
        </mxCell>
        <mxCell id="lc3q0VoDy4iHKCMBtsfO-69" style="edgeStyle=orthogonalEdgeStyle;rounded=0;orthogonalLoop=1;jettySize=auto;html=1;exitX=0.5;exitY=0;exitDx=0;exitDy=0;" edge="1" parent="1" source="lc3q0VoDy4iHKCMBtsfO-63">
          <mxGeometry relative="1" as="geometry">
            <mxPoint x="370" y="470" as="targetPoint" />
          </mxGeometry>
        </mxCell>
        <mxCell id="lc3q0VoDy4iHKCMBtsfO-63" value="data" style="ellipse;whiteSpace=wrap;html=1;" vertex="1" parent="1">
          <mxGeometry x="310" y="540" width="90" height="50" as="geometry" />
        </mxCell>
        <mxCell id="lc3q0VoDy4iHKCMBtsfO-70" style="edgeStyle=orthogonalEdgeStyle;rounded=0;orthogonalLoop=1;jettySize=auto;html=1;exitX=0.5;exitY=0;exitDx=0;exitDy=0;" edge="1" parent="1" source="lc3q0VoDy4iHKCMBtsfO-64">
          <mxGeometry relative="1" as="geometry">
            <mxPoint x="370" y="470" as="targetPoint" />
          </mxGeometry>
        </mxCell>
        <mxCell id="lc3q0VoDy4iHKCMBtsfO-64" value="horario" style="ellipse;whiteSpace=wrap;html=1;" vertex="1" parent="1">
          <mxGeometry x="413.5" y="540" width="90" height="50" as="geometry" />
        </mxCell>
        <mxCell id="lc3q0VoDy4iHKCMBtsfO-67" style="edgeStyle=orthogonalEdgeStyle;rounded=0;orthogonalLoop=1;jettySize=auto;html=1;exitX=0.5;exitY=0;exitDx=0;exitDy=0;entryX=0.5;entryY=1;entryDx=0;entryDy=0;" edge="1" parent="1" source="lc3q0VoDy4iHKCMBtsfO-65" target="lc3q0VoDy4iHKCMBtsfO-6">
          <mxGeometry relative="1" as="geometry" />
        </mxCell>
        <mxCell id="lc3q0VoDy4iHKCMBtsfO-65" value="codigo(PK)" style="ellipse;whiteSpace=wrap;html=1;" vertex="1" parent="1">
          <mxGeometry x="210" y="540" width="90" height="50" as="geometry" />
        </mxCell>
        <mxCell id="lc3q0VoDy4iHKCMBtsfO-71" style="edgeStyle=orthogonalEdgeStyle;rounded=0;orthogonalLoop=1;jettySize=auto;html=1;exitX=0.5;exitY=0;exitDx=0;exitDy=0;entryX=0.5;entryY=1;entryDx=0;entryDy=0;" edge="1" parent="1" source="lc3q0VoDy4iHKCMBtsfO-66" target="lc3q0VoDy4iHKCMBtsfO-6">
          <mxGeometry relative="1" as="geometry" />
        </mxCell>
        <mxCell id="lc3q0VoDy4iHKCMBtsfO-66" value="tipo_trabalho" style="ellipse;whiteSpace=wrap;html=1;" vertex="1" parent="1">
          <mxGeometry x="515" y="540" width="90" height="50" as="geometry" />
        </mxCell>
        <mxCell id="lc3q0VoDy4iHKCMBtsfO-75" style="edgeStyle=orthogonalEdgeStyle;rounded=0;orthogonalLoop=1;jettySize=auto;html=1;exitX=1;exitY=0.5;exitDx=0;exitDy=0;entryX=0.5;entryY=1;entryDx=0;entryDy=0;" edge="1" parent="1" source="lc3q0VoDy4iHKCMBtsfO-73" target="lc3q0VoDy4iHKCMBtsfO-8">
          <mxGeometry relative="1" as="geometry" />
        </mxCell>
        <mxCell id="lc3q0VoDy4iHKCMBtsfO-73" value="cpf_cuidador(FK)" style="ellipse;whiteSpace=wrap;html=1;" vertex="1" parent="1">
          <mxGeometry x="-60" y="480" width="90" height="50" as="geometry" />
        </mxCell>
        <mxCell id="lc3q0VoDy4iHKCMBtsfO-77" style="edgeStyle=orthogonalEdgeStyle;rounded=0;orthogonalLoop=1;jettySize=auto;html=1;exitX=1;exitY=0.5;exitDx=0;exitDy=0;entryX=0.5;entryY=1;entryDx=0;entryDy=0;" edge="1" parent="1" source="lc3q0VoDy4iHKCMBtsfO-74" target="lc3q0VoDy4iHKCMBtsfO-8">
          <mxGeometry relative="1" as="geometry" />
        </mxCell>
        <mxCell id="lc3q0VoDy4iHKCMBtsfO-74" value="codigo(FK)" style="ellipse;whiteSpace=wrap;html=1;" vertex="1" parent="1">
          <mxGeometry x="-60" y="550" width="90" height="50" as="geometry" />
        </mxCell>
        <mxCell id="lc3q0VoDy4iHKCMBtsfO-83" style="edgeStyle=orthogonalEdgeStyle;rounded=0;orthogonalLoop=1;jettySize=auto;html=1;exitX=1;exitY=0.5;exitDx=0;exitDy=0;entryX=0;entryY=0.5;entryDx=0;entryDy=0;" edge="1" parent="1" source="lc3q0VoDy4iHKCMBtsfO-78" target="lc3q0VoDy4iHKCMBtsfO-9">
          <mxGeometry relative="1" as="geometry" />
        </mxCell>
        <mxCell id="lc3q0VoDy4iHKCMBtsfO-78" value="nome_cuidador" style="ellipse;whiteSpace=wrap;html=1;" vertex="1" parent="1">
          <mxGeometry x="-110" y="225" width="90" height="50" as="geometry" />
        </mxCell>
        <mxCell id="lc3q0VoDy4iHKCMBtsfO-82" style="edgeStyle=orthogonalEdgeStyle;rounded=0;orthogonalLoop=1;jettySize=auto;html=1;exitX=1;exitY=0.5;exitDx=0;exitDy=0;entryX=0;entryY=0.5;entryDx=0;entryDy=0;" edge="1" parent="1" source="lc3q0VoDy4iHKCMBtsfO-79" target="lc3q0VoDy4iHKCMBtsfO-9">
          <mxGeometry relative="1" as="geometry" />
        </mxCell>
        <mxCell id="lc3q0VoDy4iHKCMBtsfO-79" value="cpf_cuidador(PK)" style="ellipse;whiteSpace=wrap;html=1;" vertex="1" parent="1">
          <mxGeometry x="-110" y="160" width="90" height="50" as="geometry" />
        </mxCell>
        <mxCell id="lc3q0VoDy4iHKCMBtsfO-81" style="edgeStyle=orthogonalEdgeStyle;rounded=0;orthogonalLoop=1;jettySize=auto;html=1;exitX=1;exitY=0.5;exitDx=0;exitDy=0;entryX=0;entryY=0.5;entryDx=0;entryDy=0;" edge="1" parent="1" source="lc3q0VoDy4iHKCMBtsfO-80" target="lc3q0VoDy4iHKCMBtsfO-9">
          <mxGeometry relative="1" as="geometry" />
        </mxCell>
        <mxCell id="lc3q0VoDy4iHKCMBtsfO-80" value="telefone_cuidador" style="ellipse;whiteSpace=wrap;html=1;" vertex="1" parent="1">
          <mxGeometry x="-110" y="290" width="90" height="50" as="geometry" />
        </mxCell>
        <mxCell id="lc3q0VoDy4iHKCMBtsfO-100" value="&lt;h1 style=&quot;margin-top: 0px;&quot;&gt;&lt;br&gt;&lt;/h1&gt;&lt;div&gt;id(PK): INT&lt;/div&gt;&lt;div&gt;nome_cachorro: VARCHAR(50)&lt;/div&gt;&lt;div&gt;raca:&amp;nbsp;&lt;span style=&quot;background-color: transparent; color: light-dark(rgb(0, 0, 0), rgb(255, 255, 255));&quot;&gt;VARCHAR(50)&lt;/span&gt;&lt;/div&gt;&lt;div&gt;tamanho:&amp;nbsp;&lt;span style=&quot;background-color: transparent; color: light-dark(rgb(0, 0, 0), rgb(255, 255, 255));&quot;&gt;VARCHAR(20)&lt;/span&gt;&lt;/div&gt;" style="text;html=1;whiteSpace=wrap;overflow=hidden;rounded=0;" vertex="1" parent="1">
          <mxGeometry x="220" y="-290" width="350" height="130" as="geometry" />
        </mxCell>
        <mxCell id="lc3q0VoDy4iHKCMBtsfO-102" value="&lt;h1 style=&quot;margin-top: 0px;&quot;&gt;&lt;br&gt;&lt;/h1&gt;&lt;div&gt;cpf_cuidador(PF):&amp;nbsp;&lt;span style=&quot;background-color: transparent; color: light-dark(rgb(0, 0, 0), rgb(255, 255, 255));&quot;&gt;VARCHAR(14)&lt;/span&gt;&lt;/div&gt;&lt;div&gt;nome_cuidador:&amp;nbsp;&lt;span style=&quot;background-color: transparent; color: light-dark(rgb(0, 0, 0), rgb(255, 255, 255));&quot;&gt;VARCHAR(80)&lt;/span&gt;&lt;/div&gt;&lt;div&gt;telefone_cuidador:&amp;nbsp;&lt;span style=&quot;background-color: transparent; color: light-dark(rgb(0, 0, 0), rgb(255, 255, 255));&quot;&gt;VARCHAR(15)&amp;nbsp;&lt;/span&gt;&lt;/div&gt;" style="text;html=1;whiteSpace=wrap;overflow=hidden;rounded=0;" vertex="1" parent="1">
          <mxGeometry x="-320" y="190" width="190" height="120" as="geometry" />
        </mxCell>
        <mxCell id="lc3q0VoDy4iHKCMBtsfO-103" value="&lt;h1 style=&quot;margin-top: 0px;&quot;&gt;&lt;br&gt;&lt;/h1&gt;&lt;div&gt;codigo(PK): INT&lt;/div&gt;&lt;div&gt;data: DATE&lt;/div&gt;&lt;div&gt;horario: TIME&lt;/div&gt;&lt;div&gt;tipo_trabalho&amp;nbsp;&lt;span style=&quot;background-color: transparent; color: light-dark(rgb(0, 0, 0), rgb(255, 255, 255));&quot;&gt;VARCHAR(50)&lt;/span&gt;&lt;/div&gt;" style="text;html=1;whiteSpace=wrap;overflow=hidden;rounded=0;" vertex="1" parent="1">
          <mxGeometry x="300" y="580" width="180" height="120" as="geometry" />
        </mxCell>
        <mxCell id="lc3q0VoDy4iHKCMBtsfO-104" value="&lt;h1 style=&quot;margin-top: 0px;&quot;&gt;&lt;br&gt;&lt;/h1&gt;&lt;div&gt;cpf_tutor(PK):&amp;nbsp;&lt;span style=&quot;background-color: transparent; color: light-dark(rgb(0, 0, 0), rgb(255, 255, 255));&quot;&gt;VARCHAR(14)&lt;/span&gt;&lt;/div&gt;&lt;div&gt;endereco:&amp;nbsp;&lt;span style=&quot;background-color: transparent; color: light-dark(rgb(0, 0, 0), rgb(255, 255, 255));&quot;&gt;VARCHAR(120)&lt;/span&gt;&lt;/div&gt;&lt;div&gt;nome_tutor:&amp;nbsp;&lt;span style=&quot;background-color: transparent; color: light-dark(rgb(0, 0, 0), rgb(255, 255, 255));&quot;&gt;VARCHAR(80)&lt;/span&gt;&lt;/div&gt;&lt;div&gt;telefone_tutor:&amp;nbsp;&lt;span style=&quot;background-color: transparent; color: light-dark(rgb(0, 0, 0), rgb(255, 255, 255));&quot;&gt;VARCHAR(15)&lt;/span&gt;&lt;/div&gt;&lt;div&gt;&lt;br&gt;&lt;/div&gt;" style="text;html=1;whiteSpace=wrap;overflow=hidden;rounded=0;" vertex="1" parent="1">
          <mxGeometry x="930" y="170" width="180" height="120" as="geometry" />
        </mxCell>
      </root>
    </mxGraphModel>
  </diagram>
</mxfile>
